<svg width="14" height="13" viewBox="0 0 14 13" fill="none" xmlns="http://www.w3.org/2000/svg">
<path fill-rule="evenodd" clip-rule="evenodd" d="M9.13591 11.3561L9.1361 11.3559C10.5463 10.1017 11.7642 9.01853 12.6116 7.95126C13.5589 6.7583 14 5.62711 14 4.39123C14 3.19069 13.6055 2.08302 12.8894 1.27222C12.1647 0.451832 11.1702 0 10.0891 0C9.28436 0 8.54709 0.264424 7.89754 0.785898C7.89479 0.788099 7.89205 0.790307 7.88931 0.792517C7.56055 1.05795 7.26265 1.3827 7 1.76173C6.73746 1.38281 6.43945 1.05795 6.11058 0.792517C6.10787 0.790325 6.10515 0.788137 6.10243 0.785954C5.45296 0.264443 4.71567 0 3.9109 0C2.82976 0 1.83524 0.451832 1.11052 1.27222C0.394455 2.08302 0 3.19069 0 4.39134C0 5.62711 0.441238 6.7583 1.38855 7.95137C2.23599 9.01857 3.45396 10.1019 4.86441 11.3564L4.8655 11.3574C5.34685 11.7856 5.89236 12.2709 6.45879 12.7877C6.60854 12.9246 6.80069 13 7 13C7.1992 13 7.39146 12.9246 7.541 12.788C8.1032 12.2748 8.64513 11.7927 9.12405 11.3667L9.13591 11.3561ZM2.40665 7.14299C3.16893 8.10294 4.28961 9.10538 5.72838 10.3851L5.72844 10.3851L5.73168 10.388C6.11741 10.7311 6.54856 11.1147 6.99999 11.5231C7.44733 11.1183 7.8749 10.7379 8.25794 10.3972L8.27184 10.3848L8.27196 10.3847C9.71057 9.10521 10.8312 8.10291 11.5935 7.14289L11.5935 7.14283C12.4018 6.12491 12.7 5.27038 12.7 4.39123C12.7 3.47029 12.3979 2.67946 11.915 2.13284C11.4335 1.58778 10.7921 1.3 10.0891 1.3C9.58952 1.3 9.13519 1.45757 8.70578 1.80414C8.48203 1.98482 8.26702 2.21572 8.06853 2.50216L6.99994 4.04427L5.93143 2.50211C5.73304 2.21577 5.51793 1.98478 5.2941 1.80413L5.29403 1.80408C4.86479 1.45758 4.4105 1.3 3.9109 1.3C3.20786 1.3 2.56641 1.58779 2.08492 2.13277M2.08481 2.13289C1.6021 2.67953 1.3 3.47034 1.3 4.39134C1.3 5.27029 1.59822 6.12482 2.40661 7.14295" fill="#252525"/>
</svg>
