<svg width="11" height="13" viewBox="0 0 11 13" fill="none" xmlns="http://www.w3.org/2000/svg">
<path d="M10.7534 12.457L9.96238 3.64738C9.9408 3.4068 9.73916 3.22252 9.49764 3.22252H7.86632V2.48677C7.86632 1.11557 6.75082 0 5.37967 0C4.00859 0 2.89322 1.11557 2.89322 2.48677V3.22252H1.26077C1.01926 3.22252 0.81762 3.4068 0.796032 3.64738L0.00186574 12.4916C-0.00983056 12.6222 0.0338439 12.7515 0.12225 12.8482C0.210657 12.9449 0.335646 12.9999 0.466607 12.9999H10.2919H10.2931C10.5509 12.9999 10.7597 12.791 10.7597 12.5333C10.7597 12.5074 10.7575 12.4818 10.7534 12.457ZM3.82643 2.48677C3.82643 1.63014 4.52323 0.933215 5.37974 0.933215C6.2363 0.933215 6.93317 1.63014 6.93317 2.48677V3.22252H3.82643V2.48677ZM0.977014 12.0668L1.68738 4.15573H2.89322V3.99015C2.89322 4.24784 3.10207 4.45676 3.35982 4.45676C3.61758 4.45676 3.82643 4.24784 3.82643 3.99015V4.15573H6.93317V3.99015C6.93317 4.24784 7.14202 4.45676 7.39978 4.45676C7.65753 4.45676 7.86638 4.24784 7.86638 3.99015V4.15573H9.0711L9.78147 12.0668H0.977014Z" fill="#252525"/>
</svg>
